# File created by Blade
# Date/Time:  Tue Apr 07 20:13:55 2015
# Frame Rate: 120.000 fps
#------------------------------------------------------
:FULLY-SPECIFIED
:DEGREES
3985
root 2.550720 32.951982 -11.231984 9.933716 -2.189591 -9.921105
Spine -3.897686 -13.422693 -5.736903
Head 32.066233 -11.741660 11.998048
LeftShoulder -20.051778 50.643982 8.466846
LeftArm 48.650197 -7.652994 -78.661309
LeftForeArm -16.483831 -0.000000 61.753151
LeftHand 8.854263 -0.000000 3.761064
LeftHandThumb1 -26.253704 0.000000 33.147579
RightShoulder -8.829223 -12.738590 -13.232962
RightArm 6.009651 18.623289 80.106010
RightForeArm 32.886338 -0.000000 57.499586
RightHand 3.082080 -0.000000 9.257180
RightHandThumb1 -24.326973 -0.000000 -32.862282
LeftUpLeg -14.723155 -3.279827 9.511937
LeftLeg 16.991124 -0.000000 -0.000000
LeftFoot -13.426242 -2.088363 -25.960982
LeftToeBase -5.631888 -0.000000 0.000000
RightUpLeg -27.072843 5.271313 8.780572
RightLeg 32.053416 -0.000000 -0.000000
RightFoot -3.125915 -7.781119 8.802624
RightToeBase -5.915541 -0.000000 0.000000
3986
root 2.511138 32.910364 -11.238587 10.183255 -1.570934 -9.491626
Spine -3.946610 -13.436401 -6.108369
Head 32.074665 -12.108406 11.953599
LeftShoulder -20.255027 50.782230 8.177735
LeftArm 48.484829 -7.900556 -78.640867
LeftForeArm -16.327468 0.000000 61.508812
LeftHand 8.678979 -0.000000 3.703632
LeftHandThumb1 -26.253704 0.000000 33.147579
RightShoulder -8.927405 -12.945810 -13.312517
RightArm 5.775455 18.458375 80.447623
RightForeArm 33.030043 0.000000 57.635711
RightHand 3.135424 0.000000 9.221363
RightHandThumb1 -24.326973 -0.000000 -32.862282
LeftUpLeg -15.185695 -3.649244 9.209089
LeftLeg 17.097302 -0.000000 -0.000000
LeftFoot -13.557526 -2.091648 -25.425007
LeftToeBase -5.862430 -0.000000 0.000000
RightUpLeg -26.395203 5.862889 8.515478
RightLeg 30.488326 -0.000000 -0.000000
RightFoot -3.824816 -9.728775 8.553174
RightToeBase -6.536148 -0.000000 0.000000
3987
root 2.472760 32.872241 -11.246284 10.417746 -0.993928 -9.073540
Spine -3.982815 -13.396434 -6.465273
Head 32.161129 -12.459540 11.861710
LeftShoulder -20.398670 50.871393 7.929758
LeftArm 48.307671 -8.146112 -78.679432
LeftForeArm -16.125009 0.000000 61.231519
LeftHand 8.611761 -0.000000 3.579362
LeftHandThumb1 -26.253704 0.000000 33.147579
RightShoulder -9.039243 -13.238435 -13.357431
RightArm 5.776749 18.534310 80.929973
RightForeArm 32.852336 -0.000000 57.656106
RightHand 3.060717 -0.000000 9.476767
RightHandThumb1 -24.326973 -0.000000 -32.862282
LeftUpLeg -15.592666 -4.076819 8.933373
LeftLeg 17.140740 -0.000000 -0.000000
LeftFoot -13.681936 -2.066008 -24.976562
LeftToeBase -6.005627 -0.000000 0.000000
RightUpLeg -25.721283 6.353593 8.267701
RightLeg 28.861134 -0.000000 -0.000000
RightFoot -4.574890 -11.461738 8.020307
RightToeBase -6.666385 -0.000000 0.000000
3988
root 2.443353 32.840752 -11.220852 10.402992 -0.868138 -8.407741
Spine -3.859751 -12.937465 -7.265555
Head 32.374087 -12.821241 11.883794
LeftShoulder -20.662973 51.091803 7.579196
LeftArm 48.286790 -8.421324 -78.688168
LeftForeArm -15.990199 -0.000000 60.926543
LeftHand 8.483672 -0.000000 3.360708
LeftHandThumb1 -26.253704 0.000000 33.147579
RightShoulder -9.140779 -13.509694 -13.253655
RightArm 5.641710 18.359206 81.195398
RightForeArm 32.819790 0.000000 57.767584
RightHand 3.077822 -0.000000 9.425564
RightHandThumb1 -24.326973 -0.000000 -32.862282
LeftUpLeg -15.433605 -4.439795 8.329589
LeftLeg 16.840823 -0.000000 -0.000000
LeftFoot -13.772957 -1.791456 -24.691487
LeftToeBase -5.999321 -0.000000 0.000000
RightUpLeg -24.748012 6.898822 7.767482
RightLeg 27.194344 -0.000000 -0.000000
RightFoot -5.441541 -12.861568 7.125045
RightToeBase -5.446424 -0.000000 0.000000
3989
root 2.415168 32.808456 -11.226502 10.668452 -0.417980 -7.926608
Spine -3.960996 -12.782169 -7.665475
Head 32.552180 -13.180446 11.738149
LeftShoulder -20.784142 51.141179 7.329862
LeftArm 48.136102 -8.619104 -78.747983
LeftForeArm -15.882021 0.000000 60.622749
LeftHand 8.346240 -0.000000 3.263557
LeftHandThumb1 -26.253704 0.000000 33.147579
RightShoulder -9.240418 -13.736588 -13.252825
RightArm 5.540500 18.150421 81.423366
RightForeArm 32.844399 -0.000000 57.837403
RightHand 3.062526 -0.000000 9.392177
RightHandThumb1 -24.326973 -0.000000 -32.862282
LeftUpLeg -15.750728 -5.218607 8.042037
LeftLeg 16.709672 -0.000000 -0.000000
LeftFoot -13.965836 -1.481688 -24.611073
LeftToeBase -5.979763 -0.000000 0.000000
RightUpLeg -24.147558 7.027098 7.479250
RightLeg 25.483494 -0.000000 -0.000000
RightFoot -6.170712 -14.185600 6.324659
RightToeBase -4.097652 -0.000000 0.000000
3990
root 2.393136 32.778079 -11.233727 10.964212 -0.031922 -7.408014
Spine -4.099292 -12.582328 -8.078569
Head 32.778714 -13.518031 11.538781
LeftShoulder -20.996458 51.233816 6.985283
LeftArm 48.081072 -8.772992 -78.797267
LeftForeArm -15.839245 0.000000 60.315178
LeftHand 8.168978 -0.000000 3.094466
LeftHandThumb1 -26.253704 0.000000 33.147579
RightShoulder -9.354542 -13.919425 -13.266437
RightArm 5.453646 17.849328 81.624623
RightForeArm 32.723576 -0.000000 57.878879
RightHand 3.111663 -0.000000 9.204842
RightHandThumb1 -24.326973 -0.000000 -32.862282
LeftUpLeg -16.044185 -6.105057 7.747741
LeftLeg 16.471730 -0.000000 -0.000000
LeftFoot -14.143940 -1.106124 -24.742385
LeftToeBase -5.954682 -0.000000 0.000000
RightUpLeg -23.681159 6.911174 7.184759
RightLeg 23.921464 -0.000000 -0.000000
RightFoot -6.753946 -15.384851 5.541015
RightToeBase -2.820100 -0.000000 0.000000
